<!-- Generated by IcoMoon.io -->
<svg version="1.1" xmlns="http://www.w3.org/2000/svg" width="32" height="32" viewBox="0 0 32 32">
    <title>doller</title>
    <path fill="#2F7AD5" d="M32 16c0 8.837-7.163 16-16 16s-16-7.163-16-16c0-8.837 7.163-16 16-16s16 7.163 16 16z"></path>
    <path fill="#fff" d="M19.915 15.509c-0.537-0.29-1.203-0.597-1.887-0.868l-0.135-0.047c-0.424-0.166-0.791-0.376-1.121-0.629l0.011 0.008c-0.257-0.176-0.424-0.468-0.424-0.8 0-0.425 0.275-0.786 0.657-0.915l0.007-0.002c0.201-0.083 0.433-0.133 0.677-0.139l0.002-0c0.093-0.006 0.201-0.009 0.31-0.009 0.816 0 1.588 0.19 2.274 0.527l-0.030-0.013c0.403 0.188 0.536 0.134 0.672-0.286s0.264-0.894 0.395-1.342c0.021-0.052 0.034-0.112 0.034-0.175 0-0.212-0.141-0.391-0.334-0.449l-0.003-0.001c-0.465-0.215-1.006-0.384-1.571-0.48l-0.038-0.005c-0.73-0.113-0.73-0.117-0.734-0.851 0-1.035 0-1.035-1.041-1.035-0.151 0-0.301 0-0.45 0-0.486 0.013-0.565 0.1-0.58 0.587 0 0.218 0 0.437 0 0.659 0 0.649 0 0.638-0.629 0.864-1.432 0.409-2.472 1.68-2.53 3.203l-0 0.006c-0.004 0.057-0.006 0.124-0.006 0.191 0 1.298 0.752 2.42 1.844 2.955l0.019 0.009c0.629 0.341 1.395 0.693 2.184 0.997l0.141 0.048c0.324 0.135 0.603 0.302 0.854 0.504l-0.007-0.005c0.295 0.213 0.485 0.557 0.485 0.944 0 0.498-0.314 0.923-0.754 1.088l-0.008 0.003c-0.319 0.138-0.691 0.219-1.082 0.219-0.145 0-0.287-0.011-0.427-0.032l0.016 0.002c-0.845-0.097-1.614-0.337-2.311-0.697l0.037 0.017c-0.42-0.218-0.542-0.16-0.687 0.294-0.122 0.393-0.232 0.789-0.341 1.184-0.147 0.533-0.092 0.659 0.416 0.909 0.595 0.278 1.286 0.485 2.010 0.585l0.038 0.004c0.553 0.088 0.565 0.113 0.578 0.687 0 0.26 0 0.523 0 0.781-0.003 0.019-0.004 0.040-0.004 0.062 0 0.257 0.208 0.465 0.465 0.465 0.013 0 0.027-0.001 0.040-0.002l-0.002 0c0.376 0 0.768 0 1.15 0 0.012 0.001 0.026 0.002 0.040 0.002 0.242 0 0.439-0.196 0.439-0.439 0-0.021-0.001-0.041-0.004-0.061l0 0.002c0-0.356 0.017-0.713 0-1.069-0.004-0.025-0.006-0.053-0.006-0.082 0-0.287 0.214-0.524 0.491-0.56l0.003-0c0.814-0.218 1.502-0.672 2.005-1.285l0.005-0.007c0.508-0.62 0.816-1.42 0.816-2.293 0-1.399-0.791-2.612-1.95-3.218l-0.020-0.010z"></path>
</svg>
