<svg xmlns="http://www.w3.org/2000/svg" width="15.234" height="22.496" viewBox="0 0 15.234 22.496">
  <path id="Path_13052" data-name="Path 13052" d="M23.344,5.587h-1.07V2.35A2.017,2.017,0,0,0,20.133.5H15.852a2.017,2.017,0,0,0-2.141,1.85V5.587h-1.07A2.017,2.017,0,0,0,10.5,7.436V19.459a2.017,2.017,0,0,0,2.141,1.85h1.177v.925a.541.541,0,0,0,1.07,0v-.925h6.154v.925a.541.541,0,0,0,1.07,0v-.925H23.29a2.017,2.017,0,0,0,2.141-1.85V7.436A1.934,1.934,0,0,0,23.344,5.587ZM14.781,2.35a1.009,1.009,0,0,1,1.07-.925h4.281a1.009,1.009,0,0,1,1.07.925V5.587H14.781ZM11.57,8.71H24.414v9.523H11.57V8.71Zm1.07-2.2h10.7a1.009,1.009,0,0,1,1.07.925v2.4H11.57v-2.4A1.009,1.009,0,0,1,12.641,6.511Zm10.7,13.873h-10.7a1.009,1.009,0,0,1-1.07-.925v-2.4H24.414v2.4A1.009,1.009,0,0,1,23.344,20.384Z" transform="translate(-10.35 -0.35)" fill="#343434" stroke="#343434" stroke-width="0.3"/>
</svg>
