<svg xmlns="http://www.w3.org/2000/svg" width="18.3" height="18.3" viewBox="0 0 18.3 18.3">
  <g id="Group_7832" data-name="Group 7832" transform="translate(0.15 0.15)">
    <path id="Path_3734" data-name="Path 3734" d="M6,20.727A3.273,3.273,0,0,0,9.273,24H20.727A3.273,3.273,0,0,0,24,20.727V13.364a3.273,3.273,0,0,0-3.273-3.273H19.091V8.455A2.455,2.455,0,0,0,16.636,6H13.364a2.455,2.455,0,0,0-2.455,2.455v1.636H9.273A3.273,3.273,0,0,0,6,13.364Zm5.727,1.636V11.727h6.545V22.364Zm9-10.636a1.636,1.636,0,0,1,1.636,1.636v7.364a1.636,1.636,0,0,1-1.636,1.636h-.818V11.727ZM12.545,8.455a.818.818,0,0,1,.818-.818h3.273a.818.818,0,0,1,.818.818v1.636H12.545ZM7.636,13.364a1.636,1.636,0,0,1,1.636-1.636h.818V22.364H9.273a1.636,1.636,0,0,1-1.636-1.636Z" transform="translate(-6 -6)" fill="#343434" stroke="#fff" stroke-width="0.3"/>
  </g>
</svg>
