<svg xmlns="http://www.w3.org/2000/svg" width="45.065" height="33.892" viewBox="0 0 45.065 33.892">
  <g id="Billing_information-2" data-name="Billing information-2" transform="translate(4088.072 2768.604)">
    <g id="noun-approved-payment-card-999937" transform="translate(-4088.072 -2768.604)">
      <path id="Path_7037" data-name="Path 7037" d="M114.149,73.086a3.664,3.664,0,0,0-3.66-3.66H73.661A3.665,3.665,0,0,0,70,73.086v3.2h44.149Z" transform="translate(-70 -69.426)" fill="#1b75bc"/>
      <path id="Path_7038" data-name="Path 7038" d="M114.149,229.955v-8.929H70v14.107a3.664,3.664,0,0,0,3.661,3.66H98.845a8.856,8.856,0,0,0,15.3-8.839ZM106.2,240.89a7.035,7.035,0,1,1,7.035-7.035A7.043,7.043,0,0,1,106.2,240.89Z" transform="translate(-70 -208.826)" fill="#1b75bc"/>
      <path id="Path_7039" data-name="Path 7039" d="M70,177.44h44.149v1.677H70Z" transform="translate(-70 -168.748)" fill="#ff7f00"/>
    </g>
    <path id="Path_7040" data-name="Path 7040" d="M315.508,299.787h-.033v-2.071a3.552,3.552,0,0,1,1.575.639l.716-1.014a4.606,4.606,0,0,0-2.292-.827v-.562h-.7v.551a2.7,2.7,0,0,0-1.736.661,2.011,2.011,0,0,0-.666,1.559,1.77,1.77,0,0,0,.578,1.438,4.5,4.5,0,0,0,1.824.782v2.138a3.82,3.82,0,0,1-1.906-.959l-.8.959a4.783,4.783,0,0,0,2.711,1.2v.8h.7v-.792a2.84,2.84,0,0,0,1.807-.661,2,2,0,0,0,.683-1.57,1.825,1.825,0,0,0-.6-1.471,4.473,4.473,0,0,0-1.862-.8Zm-.738-.2a2.228,2.228,0,0,1-.837-.413.776.776,0,0,1-.22-.584.789.789,0,0,1,.281-.617,1.319,1.319,0,0,1,.778-.292Zm1.542,3.217a1.539,1.539,0,0,1-.837.308v-1.983a2.4,2.4,0,0,1,.9.424.851.851,0,0,1-.066,1.25Z" transform="translate(-4367.073 -3044.1)" fill="#ff7f00"/>
  </g>
</svg>
