<svg xmlns="http://www.w3.org/2000/svg" width="43" height="32.392" viewBox="0 0 43 32.392">
  <g id="Contact-Info" transform="translate(-2539.519 -2988.802)">
    <rect id="Rectangle_87" data-name="Rectangle 87" width="19.351" height="20.727" transform="translate(2541.669 2995.241)" fill="#ff7f00"/>
    <g id="noun-address-book-4125732" transform="translate(2539.519 2988.802)">
      <path id="Path_6997" data-name="Path 6997" d="M0,25.235v25.53a3.366,3.366,0,0,0,3.36,3.36H39.646A3.361,3.361,0,0,0,43,50.765V25.235a3.365,3.365,0,0,0-3.354-3.36H3.36A3.371,3.371,0,0,0,0,25.235Zm5.188,5.516V29.405a.664.664,0,0,1,.676-.669H17.952a.664.664,0,0,1,.676.669v1.345a.666.666,0,0,1-.676.676H5.863a.666.666,0,0,1-.676-.676Zm0,5.295V34.867a.751.751,0,0,1,.756-.756H17.872a.751.751,0,0,1,.756.756v1.178a.751.751,0,0,1-.756.756H5.944a.756.756,0,0,1-.756-.756Zm0,5.455V40.155a.664.664,0,0,1,.676-.669H17.952a.666.666,0,0,1,.676.676V41.5a.666.666,0,0,1-.676.676H5.863a.666.666,0,0,1-.676-.676Zm0,5.241V45.4a.664.664,0,0,1,.676-.669H17.952a.664.664,0,0,1,.676.669v1.345a.664.664,0,0,1-.676.669H5.863a.664.664,0,0,1-.676-.669ZM26.44,34.258a3.715,3.715,0,1,1,3.715,3.715A3.719,3.719,0,0,1,26.44,34.258ZM23.89,43.02c0-2.53.622-5.348,3.206-5.348a6.477,6.477,0,0,0,3.079,1.245,6.452,6.452,0,0,0,3.072-1.245c2.591,0,3.213,2.818,3.213,5.348a2.242,2.242,0,0,1-2.1,2.443H25.985a2.242,2.242,0,0,1-2.1-2.443Z" transform="translate(0 -21.875)" fill="#1b75bc" fill-rule="evenodd"/>
      <g id="Group_64" data-name="Group 64" transform="translate(0.002 32.325)">
        <path id="Path_6998" data-name="Path 6998" d="M.051-.383l0,0h0a.012.012,0,0,1-.01,0,.015.015,0,0,1,0-.01.012.012,0,0,1,0-.009.013.013,0,0,1,.01,0H.051v0H.045l0,0a.008.008,0,0,0,0,.006.011.011,0,0,0,0,.007l0,0h0l0,0Z" transform="translate(-0.031 0.406)" fill="#1b75bc"/>
      </g>
      <g id="Group_65" data-name="Group 65" transform="translate(0.027 32.331)">
        <path id="Path_6999" data-name="Path 6999" d="M.06-.307h0l0,0a.008.008,0,0,0,0,0v.009H.047V-.312H.053v0l0,0H.06Z" transform="translate(-0.047 0.313)" fill="#1b75bc"/>
      </g>
      <g id="Group_66" data-name="Group 66" transform="translate(0.043 32.331)">
        <path id="Path_7000" data-name="Path 7000" d="M.05-.3v0H.037s0,0,0,0H.046l0,0v0H.042a.012.012,0,0,1-.009,0,.011.011,0,0,1,0-.007.013.013,0,0,1,0-.008.01.01,0,0,1,.008,0,.009.009,0,0,1,.007,0A.009.009,0,0,1,.05-.3ZM.045-.3s0,0,0,0H.038s0,0,0,0Z" transform="translate(-0.031 0.313)" fill="#1b75bc"/>
      </g>
      <g id="Group_67" data-name="Group 67" transform="translate(0.066 32.331)">
        <path id="Path_7001" data-name="Path 7001" d="M.04-.3h0v0H.043a0,0,0,0,0,0,0h0Zm.01,0v.011H.044v0l0,0h0l0,0a.01.01,0,0,1,0,0,0,0,0,0,1,0,0L.04-.3H.032v0H.04a.008.008,0,0,1,.007,0,.007.007,0,0,1,0,.006Z" transform="translate(-0.031 0.312)" fill="#1b75bc"/>
      </g>
      <g id="Group_68" data-name="Group 68" transform="translate(0.087 32.326)">
        <path id="Path_7002" data-name="Path 7002" d="M.024-.391v.006H.03v0H.024V-.37h0v0H.019a.007.007,0,0,1,0-.006V-.381h0v0h0V-.391Z" transform="translate(-0.016 0.391)" fill="#1b75bc"/>
      </g>
      <g id="Group_69" data-name="Group 69" transform="translate(0.104 32.331)">
        <path id="Path_7003" data-name="Path 7003" d="M.05-.3v0H.037s0,0,0,0H.046l0,0v0H.042a.012.012,0,0,1-.009,0,.011.011,0,0,1,0-.007.013.013,0,0,1,0-.008.01.01,0,0,1,.008,0,.009.009,0,0,1,.007,0A.009.009,0,0,1,.05-.3ZM.045-.3s0,0,0,0H.038s0,0,0,0Z" transform="translate(-0.031 0.313)" fill="#1b75bc"/>
      </g>
      <g id="Group_70" data-name="Group 70" transform="translate(0.127 32.324)">
        <path id="Path_7004" data-name="Path 7004" d="M.045-.411V-.422H.05V-.4H.045v0l0,0h0a.006.006,0,0,1-.006,0,.011.011,0,0,1,0-.007.013.013,0,0,1,0-.008.006.006,0,0,1,.006,0h0l0,0Zm0,.012h0a.01.01,0,0,0,0,0,.007.007,0,0,0,0,0l0,0,0,0a.005.005,0,0,0,0,0,.007.007,0,0,0,0,0Z" transform="translate(-0.031 0.422)" fill="#1b75bc"/>
      </g>
      <g id="Group_71" data-name="Group 71" transform="translate(0.164 32.324)">
        <path id="Path_7005" data-name="Path 7005" d="M.056-.4h0a.01.01,0,0,0,0,0,.007.007,0,0,0,0,0l0,0,0,0a.005.005,0,0,0,0,0,.007.007,0,0,0,0,0Zm0-.012,0,0h0a.007.007,0,0,1,.006,0,.015.015,0,0,1,0,.008.012.012,0,0,1,0,.007.007.007,0,0,1-.006,0h0l0,0v0H.047V-.422H.053Z" transform="translate(-0.047 0.422)" fill="#1b75bc"/>
      </g>
      <g id="Group_72" data-name="Group 72" transform="translate(0.185 32.332)">
        <path id="Path_7006" data-name="Path 7006" d="M.016-.3H.021l0,.012L.03-.3H.036l-.008.02,0,0,0,0h0v0h0l0,0Z" transform="translate(-0.016 0.297)" fill="#1b75bc"/>
      </g>
      <g id="Group_73" data-name="Group 73" transform="translate(0.221 32.325)">
        <path id="Path_7007" data-name="Path 7007" d="M.047-.406H.054v.025H.047Z" transform="translate(-0.047 0.406)" fill="#1b75bc"/>
      </g>
      <g id="Group_74" data-name="Group 74" transform="translate(0.233 32.331)">
        <path id="Path_7008" data-name="Path 7008" d="M.048-.312v0H.042l0,0a.005.005,0,0,0,0,0,.007.007,0,0,0,0,0h.01v0H.042a.012.012,0,0,1-.009,0,.011.011,0,0,1,0-.007.013.013,0,0,1,0-.008.012.012,0,0,1,.009,0H.048Z" transform="translate(-0.031 0.313)" fill="#1b75bc"/>
      </g>
      <g id="Group_75" data-name="Group 75" transform="translate(0.252 32.331)">
        <path id="Path_7009" data-name="Path 7009" d="M.041-.308h0a.008.008,0,0,0,0,0,.007.007,0,0,0,0,0H.044a.01.01,0,0,0,0,0,.01.01,0,0,0,0,0Zm0,0a.008.008,0,0,1,.007,0A.011.011,0,0,1,.05-.3a.009.009,0,0,1,0,.007.008.008,0,0,1-.007,0,.01.01,0,0,1-.008,0,.011.011,0,0,1,0-.007.013.013,0,0,1,0-.008A.01.01,0,0,1,.041-.313Z" transform="translate(-0.031 0.313)" fill="#1b75bc"/>
      </g>
      <g id="Group_76" data-name="Group 76" transform="translate(0.276 32.325)">
        <path id="Path_7010" data-name="Path 7010" d="M.047-.406H.055L.06-.393.066-.406H.075v.025H.068V-.4l0,.013h0L.053-.4v.018H.047Z" transform="translate(-0.047 0.406)" fill="#1b75bc"/>
      </g>
      <g id="Group_77" data-name="Group 77" transform="translate(0.309 32.331)">
        <path id="Path_7011" data-name="Path 7011" d="M.041-.308h0a.008.008,0,0,0,0,0,.007.007,0,0,0,0,0H.044a.01.01,0,0,0,0,0,.01.01,0,0,0,0,0Zm0,0a.008.008,0,0,1,.007,0A.011.011,0,0,1,.05-.3a.009.009,0,0,1,0,.007.008.008,0,0,1-.007,0,.01.01,0,0,1-.008,0,.011.011,0,0,1,0-.007.013.013,0,0,1,0-.008A.01.01,0,0,1,.041-.313Z" transform="translate(-0.031 0.313)" fill="#1b75bc"/>
      </g>
      <g id="Group_78" data-name="Group 78" transform="translate(0.332 32.331)">
        <path id="Path_7012" data-name="Path 7012" d="M.041-.308h0a.008.008,0,0,0,0,0,.007.007,0,0,0,0,0H.044a.01.01,0,0,0,0,0,.01.01,0,0,0,0,0Zm0,0a.008.008,0,0,1,.007,0A.011.011,0,0,1,.05-.3a.009.009,0,0,1,0,.007.008.008,0,0,1-.007,0,.01.01,0,0,1-.008,0,.011.011,0,0,1,0-.007.013.013,0,0,1,0-.008A.01.01,0,0,1,.041-.313Z" transform="translate(-0.031 0.313)" fill="#1b75bc"/>
      </g>
      <g id="Group_79" data-name="Group 79" transform="translate(0.356 32.331)">
        <path id="Path_7013" data-name="Path 7013" d="M.065-.3v.011H.059V-.307h0l0,0a.005.005,0,0,0,0,0v.009H.047V-.312H.053v0l0,0h0a0,0,0,0,1,0,0A.009.009,0,0,1,.065-.3Z" transform="translate(-0.047 0.313)" fill="#1b75bc"/>
      </g>
      <g id="Group_80" data-name="Group 80" transform="translate(0.001 32.358)">
        <path id="Path_7014" data-name="Path 7014" d="M.029-.422v0h0v0h0v0h0V-.4H.019V-.41h0v0h0a.01.01,0,0,1,0,0l.006,0Z" transform="translate(-0.016 0.422)" fill="#1b75bc"/>
      </g>
      <g id="Group_81" data-name="Group 81" transform="translate(0.018 32.365)">
        <path id="Path_7015" data-name="Path 7015" d="M.06-.307h0l0,0a.008.008,0,0,0,0,0v.009H.047V-.312H.053v0l0,0H.06Z" transform="translate(-0.047 0.313)" fill="#1b75bc"/>
      </g>
      <g id="Group_82" data-name="Group 82" transform="translate(0.033 32.365)">
        <path id="Path_7016" data-name="Path 7016" d="M.041-.308h0a.008.008,0,0,0,0,0,.007.007,0,0,0,0,0H.044a.01.01,0,0,0,0,0,.01.01,0,0,0,0,0Zm0,0a.008.008,0,0,1,.007,0A.011.011,0,0,1,.05-.3a.009.009,0,0,1,0,.007.008.008,0,0,1-.007,0,.01.01,0,0,1-.008,0,.011.011,0,0,1,0-.007.013.013,0,0,1,0-.008A.01.01,0,0,1,.041-.313Z" transform="translate(-0.031 0.313)" fill="#1b75bc"/>
      </g>
      <g id="Group_83" data-name="Group 83" transform="translate(0.057 32.365)">
        <path id="Path_7017" data-name="Path 7017" d="M.064-.309l0,0,0,0a.006.006,0,0,1,0,0,.009.009,0,0,1,0,.006v.011H.07V-.3h0a.005.005,0,0,0,0,0h0l0,0a.005.005,0,0,0,0,0v.009H.058V-.3a.007.007,0,0,0,0,0h0l0,0a.005.005,0,0,0,0,0v.009H.047V-.312H.053v0l0,0h0l0,0,0,0Z" transform="translate(-0.047 0.313)" fill="#1b75bc"/>
      </g>
      <g id="Group_84" data-name="Group 84" transform="translate(0.102 32.36)">
        <path id="Path_7018" data-name="Path 7018" d="M.024-.391v.006H.03v0H.024V-.37h0v0H.019a.007.007,0,0,1,0-.006V-.381h0v0h0V-.391Z" transform="translate(-0.016 0.391)" fill="#1b75bc"/>
      </g>
      <g id="Group_85" data-name="Group 85" transform="translate(0.119 32.358)">
        <path id="Path_7019" data-name="Path 7019" d="M.065-.407V-.4H.059V-.409h0l0,0a.005.005,0,0,0,0,0V-.4H.047V-.422H.053v.011l0,0h0a0,0,0,0,1,0,0,.009.009,0,0,1,0,.006Z" transform="translate(-0.047 0.422)" fill="#1b75bc"/>
      </g>
      <g id="Group_86" data-name="Group 86" transform="translate(0.142 32.365)">
        <path id="Path_7020" data-name="Path 7020" d="M.05-.3v0H.037s0,0,0,0H.046l0,0v0H.042a.012.012,0,0,1-.009,0,.011.011,0,0,1,0-.007.013.013,0,0,1,0-.008.01.01,0,0,1,.008,0,.009.009,0,0,1,.007,0A.009.009,0,0,1,.05-.3ZM.045-.3s0,0,0,0H.038s0,0,0,0Z" transform="translate(-0.031 0.313)" fill="#1b75bc"/>
      </g>
      <g id="Group_87" data-name="Group 87" transform="translate(0.178 32.359)">
        <path id="Path_7021" data-name="Path 7021" d="M.047-.406H.054l.01.017V-.406H.069v.025H.062L.053-.4v.016H.047Z" transform="translate(-0.047 0.406)" fill="#1b75bc"/>
      </g>
      <g id="Group_88" data-name="Group 88" transform="translate(0.205 32.365)">
        <path id="Path_7022" data-name="Path 7022" d="M.041-.308h0a.008.008,0,0,0,0,0,.007.007,0,0,0,0,0H.044a.01.01,0,0,0,0,0,.01.01,0,0,0,0,0Zm0,0a.008.008,0,0,1,.007,0A.011.011,0,0,1,.05-.3a.009.009,0,0,1,0,.007.008.008,0,0,1-.007,0,.01.01,0,0,1-.008,0,.011.011,0,0,1,0-.007.013.013,0,0,1,0-.008A.01.01,0,0,1,.041-.313Z" transform="translate(-0.031 0.313)" fill="#1b75bc"/>
      </g>
      <g id="Group_89" data-name="Group 89" transform="translate(0.229 32.366)">
        <path id="Path_7023" data-name="Path 7023" d="M.047-.286V-.3H.053v.013H.058a.013.013,0,0,0,0,0V-.3H.065v.018H.059v0l0,0h0l0,0A.019.019,0,0,1,.047-.286Z" transform="translate(-0.047 0.297)" fill="#1b75bc"/>
      </g>
      <g id="Group_90" data-name="Group 90" transform="translate(0.252 32.365)">
        <path id="Path_7024" data-name="Path 7024" d="M.065-.3v.011H.059V-.307h0l0,0a.005.005,0,0,0,0,0v.009H.047V-.312H.053v0l0,0h0a0,0,0,0,1,0,0A.009.009,0,0,1,.065-.3Z" transform="translate(-0.047 0.313)" fill="#1b75bc"/>
      </g>
      <g id="Group_91" data-name="Group 91" transform="translate(0.288 32.359)">
        <path id="Path_7025" data-name="Path 7025" d="M.047-.406H.057a.008.008,0,0,1,.007,0,.007.007,0,0,1,0,.006.006.006,0,0,1,0,.006.009.009,0,0,1-.007,0h0v.009H.047Zm.007,0v.007H.059a0,0,0,0,0,0,0,.005.005,0,0,0,0,0h0Z" transform="translate(-0.047 0.406)" fill="#1b75bc"/>
      </g>
      <g id="Group_92" data-name="Group 92" transform="translate(0.312 32.365)">
        <path id="Path_7026" data-name="Path 7026" d="M.06-.307h0l0,0a.008.008,0,0,0,0,0v.009H.047V-.312H.053v0l0,0H.06Z" transform="translate(-0.047 0.313)" fill="#1b75bc"/>
      </g>
      <g id="Group_93" data-name="Group 93" transform="translate(0.328 32.365)">
        <path id="Path_7027" data-name="Path 7027" d="M.041-.308h0a.008.008,0,0,0,0,0,.007.007,0,0,0,0,0H.044a.01.01,0,0,0,0,0,.01.01,0,0,0,0,0Zm0,0a.008.008,0,0,1,.007,0A.011.011,0,0,1,.05-.3a.009.009,0,0,1,0,.007.008.008,0,0,1-.007,0,.01.01,0,0,1-.008,0,.011.011,0,0,1,0-.007.013.013,0,0,1,0-.008A.01.01,0,0,1,.041-.313Z" transform="translate(-0.031 0.313)" fill="#1b75bc"/>
      </g>
      <g id="Group_94" data-name="Group 94" transform="translate(0.348 32.358)">
        <path id="Path_7028" data-name="Path 7028" d="M-.012-.414h.006V-.4a.009.009,0,0,1,0,.006.006.006,0,0,1,0,0h0v0h0s0,0,0,0Zm0-.008h.006v0H-.012Z" transform="translate(0.016 0.422)" fill="#1b75bc"/>
      </g>
      <g id="Group_95" data-name="Group 95" transform="translate(0.363 32.365)">
        <path id="Path_7029" data-name="Path 7029" d="M.05-.3v0H.037s0,0,0,0H.046l0,0v0H.042a.012.012,0,0,1-.009,0,.011.011,0,0,1,0-.007.013.013,0,0,1,0-.008.01.01,0,0,1,.008,0,.009.009,0,0,1,.007,0A.009.009,0,0,1,.05-.3ZM.045-.3s0,0,0,0H.038s0,0,0,0Z" transform="translate(-0.031 0.313)" fill="#1b75bc"/>
      </g>
      <g id="Group_96" data-name="Group 96" transform="translate(0.385 32.365)">
        <path id="Path_7030" data-name="Path 7030" d="M.048-.312v0H.042l0,0a.005.005,0,0,0,0,0,.007.007,0,0,0,0,0h.01v0H.042a.012.012,0,0,1-.009,0,.011.011,0,0,1,0-.007.013.013,0,0,1,0-.008.012.012,0,0,1,.009,0H.048Z" transform="translate(-0.031 0.313)" fill="#1b75bc"/>
      </g>
      <g id="Group_97" data-name="Group 97" transform="translate(0.404 32.36)">
        <path id="Path_7031" data-name="Path 7031" d="M.024-.391v.006H.03v0H.024V-.37h0v0H.019a.007.007,0,0,1,0-.006V-.381h0v0h0V-.391Z" transform="translate(-0.016 0.391)" fill="#1b75bc"/>
      </g>
    </g>
  </g>
</svg>
