<svg xmlns="http://www.w3.org/2000/svg" width="35" height="32.605" viewBox="0 0 35 32.605">
  <g id="Review-Trip-d" transform="translate(-2204.915 -2479)">
    <path id="Path_7033" data-name="Path 7033" d="M138.986,51.8h-24a1.1,1.1,0,0,0-1.094,1.094V68.341H106.18a1.091,1.091,0,0,0-1.094,1.094v9.477a5.506,5.506,0,0,0,5.47,5.495H134.6a5.5,5.5,0,0,0,5.488-5.495V52.9a1.1,1.1,0,0,0-1.1-1.094Zm-18.26,24.967a1.091,1.091,0,0,1,1.094-1.094h10.333a1.094,1.094,0,0,1,0,2.188H121.82A1.091,1.091,0,0,1,120.726,76.768Zm11.427-2.85H121.82a1.094,1.094,0,0,1,0-2.188h10.333a1.094,1.094,0,0,1,0,2.188Zm-10.7-5.613V59.44a1.1,1.1,0,0,1,1.094-1.094h8.864a1.1,1.1,0,0,1,1.094,1.094V68.3a1.1,1.1,0,0,1-1.094,1.094h-8.864A1.1,1.1,0,0,1,121.458,68.3ZM110.581,82.218a3.313,3.313,0,0,1-3.313-3.307V70.529h6.62v8.383A3.312,3.312,0,0,1,110.581,82.218Z" transform="translate(2099.829 2427.199)" fill="#1b75bc"/>
    <path id="Path_7034" data-name="Path 7034" d="M371.464,174.04H369.22v.925a1.094,1.094,0,1,1-2.188,0v-.925h-2.25v6.676h6.676V174.04Z" transform="translate(1858.686 2313.693)"/>
    <rect id="Rectangle_90" data-name="Rectangle 90" width="14.411" height="12.194" transform="translate(2219.232 2485.105)" fill="#1b75bc"/>
    <g id="Group_102" data-name="Group 102" transform="translate(2220.341 2483.997)">
      <circle id="Ellipse_6" data-name="Ellipse 6" cx="6.097" cy="6.097" r="6.097" transform="translate(0 0)" fill="#fff"/>
      <g id="noun-flight-1606530" transform="translate(3.061 3.078)">
        <path id="Path_22" data-name="Path 22" d="M238.937,173.532a.275.275,0,0,0-.053-.007.243.243,0,0,0-.239.285.248.248,0,0,0,.135.178l1.35.638.638,1.35a.247.247,0,0,0,.178.135.242.242,0,0,0,.278-.292l-.3-1.35,2.013-1.906,1.268,3a.244.244,0,0,0,.175.143.237.237,0,0,0,.214-.064.246.246,0,0,0,.068-.207l-.6-3.922,1.425-1.332a1.2,1.2,0,0,0,.4-.805.518.518,0,0,0-.132-.37.493.493,0,0,0-.37-.132,1.171,1.171,0,0,0-.805.4l-1.332,1.425-3.922-.6a.246.246,0,0,0-.207.068.228.228,0,0,0-.064.214.236.236,0,0,0,.142.175l3,1.268-1.906,2.013Z" transform="translate(-238.641 -168.868)" fill="#ff7f00"/>
      </g>
    </g>
  </g>
</svg>
