<svg xmlns="http://www.w3.org/2000/svg" width="50.855" height="53.523" viewBox="0 0 50.855 53.523">
  <g id="Group_10797" data-name="Group 10797" transform="translate(-5920.663 8331.121)">
    <path id="Path_8167" data-name="Path 8167" d="M226.385,243.077a3,3,0,0,1-.774,2.015l-5.567,6.575-.011.011c-.051.057-.108.114-.165.171l-4.542,4.281a10.69,10.69,0,0,1-7.673,2.909l-7.9-.245a3.147,3.147,0,0,0-2.083.706l-2.419,1.981-1.173-1.252-9.278-9.956-1.161-1.252,3.262-3.279.011-.011a1.494,1.494,0,0,1,.142-.125l.006-.006a7.493,7.493,0,0,1,1.207-.842,9.636,9.636,0,0,1,8.294-.609l4.947,1.9a7.541,7.541,0,0,0,2.049.279h5.88a3.583,3.583,0,0,1,2.482,1h-.006a2.676,2.676,0,0,1,.342.746c.006.011.006.023.011.034a2.734,2.734,0,0,1,.108.774,1.287,1.287,0,0,1-.006.148,2.928,2.928,0,0,1-.211.939,2.682,2.682,0,0,1-.216.421l-.04.068a2.855,2.855,0,0,1-2.283,1.355.62.62,0,0,0-.1.006c-1.087.017-2.51.028-4.019.028h-.216c-.888,0-1.782-.006-2.579-.011-.888-.006-1.662-.011-2.209-.017v.011c-1.281-.006-2.408-.017-3.188-.023l-.011,1.708c1.571.011,4.531.034,7.36.034h1.224c1.343,0,2.641-.006,3.6-.023a2.39,2.39,0,0,0,.285-.017,4.545,4.545,0,0,0,3.6-2.157l.04-.068a4.546,4.546,0,0,0,.683-2.408,4.592,4.592,0,0,0-.068-.791,4.791,4.791,0,0,0-.233-.848,4.391,4.391,0,0,0-.381-.768l2.049-1.173a1.133,1.133,0,0,0,.228-.171l2.971-3.165c.074-.074.142-.148.216-.216a5.931,5.931,0,0,1,2.966-1.941,4.447,4.447,0,0,1,.945-.1,3.5,3.5,0,0,1,2.8,1.326,3.006,3.006,0,0,1,.808,2.055Z" transform="translate(5745.133 -8547.047)" fill="#1b75bc"/>
    <path id="Path_8168" data-name="Path 8168" d="M125.228,345.577l-13.485-14.459a.315.315,0,0,0-.233-.1.305.305,0,0,0-.216.085l-5.482,5.146a.323.323,0,0,0-.017.455l13.485,14.459a.306.306,0,0,0,.222.1.317.317,0,0,0,.228-.085l5.482-5.152a.316.316,0,0,0,.017-.45Zm-5.026,2.231a1.4,1.4,0,1,1,1.4-1.4A1.4,1.4,0,0,1,120.2,347.808Z" transform="translate(5814.953 -8628.861)" fill="#1b75bc"/>
    <g id="Group_10796" data-name="Group 10796" transform="translate(5945.255 -8331.121)">
      <path id="Union_36" data-name="Union 36" d="M9.364,25.059A18.835,18.835,0,0,1,4.5,20.934C-.855,14.511-.118,6.412.269,3.791a.615.615,0,0,1,.6-.526A14,14,0,0,0,5.919,2.252,13.954,13.954,0,0,0,9.492.143a.64.64,0,0,1,.806,0A13.954,13.954,0,0,0,13.87,2.252a13.99,13.99,0,0,0,5.051,1.012.615.615,0,0,1,.6.526h0c.387,2.621,1.124,10.72-4.229,17.143a18.816,18.816,0,0,1-4.866,4.126,1.036,1.036,0,0,1-1.06,0Z" transform="translate(0 0)" fill="#ff7f00"/>
      <text id="_" data-name="$" transform="translate(4.872 16.808)" fill="#fff" font-size="14" font-family="Poppins-Medium, Poppins" font-weight="500"><tspan x="0" y="0">$</tspan></text>
    </g>
  </g>
</svg>
