<svg xmlns="http://www.w3.org/2000/svg" width="35" height="45.704" viewBox="0 0 35 45.704">
  <g id="Travel_protection_plan" data-name="Travel protection plan" transform="translate(-524.574 -281.429)">
    <path id="Union_2" data-name="Union 2" d="M9.362,41.351A24.589,24.589,0,0,1,0,22.069V5.05L9.56,2.176,17.5,0,35,5.05V22.155a24.724,24.724,0,0,1-4.886,14.618A24.932,24.932,0,0,1,17.5,45.7,24.95,24.95,0,0,1,9.362,41.351Z" transform="translate(524.574 281.429)" fill="#1b75bc"/>
    <path id="Union_1" data-name="Union 1" d="M8.729,38.751A23.086,23.086,0,0,1,0,20.681V4.732L8.913,2.039,16.316,0,32.632,4.732v16.03A23.251,23.251,0,0,1,16.316,42.83,23.224,23.224,0,0,1,8.729,38.751Z" transform="translate(525.674 282.828)" fill="#fff"/>
    <path id="Union_3" data-name="Union 3" d="M8.105,35.8A21.288,21.288,0,0,1,0,19.105V4.371L8.276,1.884,15.151,0,30.3,4.371V19.18a21.4,21.4,0,0,1-4.23,12.655,21.587,21.587,0,0,1-10.921,7.732A21.608,21.608,0,0,1,8.105,35.8Z" transform="translate(526.925 284.459)" fill="#1b75bc"/>
    <path id="Path_31" data-name="Path 31" d="M298.151,345.436a6.207,6.207,0,0,1-.683-.478v.023a9.911,9.911,0,0,1-.387,2.071c-.523,1.024-2.208,4.529-2.23,4.575a1.055,1.055,0,0,0,.478,1.411,1.12,1.12,0,0,0,.455.114,1.088,1.088,0,0,0,.956-.592c.023-.023,1.707-3.528,2.23-4.552a6.3,6.3,0,0,0,.432-1.548,9.372,9.372,0,0,0-1-.819.712.712,0,0,0-.25-.2Z" transform="translate(245.002 -38.19)" fill="#fff"/>
    <path id="Path_32" data-name="Path 32" d="M144.134,147.479a13.1,13.1,0,0,1-1.957-1.866c-.068-.114-.159-.319-.25-.523-.455-1-1.32-2.845-3.232-2.845,0,0-1.024-.023-1.343-.023a4.706,4.706,0,0,0-3.915,2.549c-.319.683-1.047,2.845-1.184,3.323a.783.783,0,0,0,.228.8l-1.092,2.617-1.889-.8a.736.736,0,0,0-.956.387l-2.23,5.348a.736.736,0,0,0,.387.956l1.752.728a1.507,1.507,0,0,1,0-1.092,1.491,1.491,0,0,1,1.366-.91,1.585,1.585,0,0,1,.569.114,1.409,1.409,0,0,1,.387.25l1.593-3.778a.736.736,0,0,0-.387-.956l1.115-2.64a.852.852,0,0,0,.751-.592c.137-.455.842-2.526,1.092-3.05a3.246,3.246,0,0,1,.683-.865,16.427,16.427,0,0,0-.159,4.506c.046.569,1.047,1.161,1.616,1.548a10.338,10.338,0,0,1,2.663,2.754c.228.523,1.206,3.3,1.707,4.552a1.08,1.08,0,0,0,.979.683,1.154,1.154,0,0,0,.387-.068,1.031,1.031,0,0,0,.592-1.366c-.068-.159-1.434-3.96-1.73-4.643a13.911,13.911,0,0,0-2.026-2.64l-.046-.046a24.931,24.931,0,0,1,.41-4.893c.137.25.273.523.41.8a6.7,6.7,0,0,0,.364.705,13.238,13.238,0,0,0,2.321,2.276.9.9,0,0,0,.5.182.847.847,0,0,0,.637-.3.833.833,0,0,0-.114-1.184Z" transform="translate(406.644 156.307)" fill="#ff7f00"/>
    <path id="Path_6955" data-name="Path 6955" d="M146.521,147.479a13.1,13.1,0,0,1-1.957-1.866c-.068-.114-.159-.319-.25-.523-.455-1-1.32-2.845-3.232-2.845,0,0-1.024-.023-1.343-.023a4.706,4.706,0,0,0-3.915,2.549c-.319.683-1.047,2.845-1.184,3.323a.784.784,0,0,0,.207.8c-.014-.168.188.371.635.223a.852.852,0,0,0,.751-.592c.137-.455.842-2.526,1.092-3.05a3.246,3.246,0,0,1,.683-.865,16.427,16.427,0,0,0-.159,4.506c.046.569,1.047,1.161,1.616,1.548a10.338,10.338,0,0,1,2.663,2.754c.228.523,1.206,3.3,1.707,4.552a1.08,1.08,0,0,0,.979.683,1.154,1.154,0,0,0,.387-.068,1.031,1.031,0,0,0,.592-1.366c-.068-.159-1.434-3.96-1.73-4.643a13.911,13.911,0,0,0-2.026-2.64l-.046-.046A24.931,24.931,0,0,1,142.4,145c.137.25.273.523.41.8a6.7,6.7,0,0,0,.364.705,13.237,13.237,0,0,0,2.321,2.276.9.9,0,0,0,.5.182.847.847,0,0,0,.637-.3.833.833,0,0,0-.114-1.184Z" transform="translate(404.257 156.307)" fill="#fff"/>
    <path id="Path_33" data-name="Path 33" d="M362.046,13.988a2.253,2.253,0,1,1-2.291,2.215,2.253,2.253,0,0,1,2.291-2.215" transform="translate(182.634 279.329)" fill="#fff"/>
    <path id="Path_34" data-name="Path 34" d="M190.127,495.987a1.024,1.024,0,1,1-1.34.55,1.024,1.024,0,0,1,1.34-.55" transform="translate(346.729 -183.005)" fill="#ff7f00"/>
  </g>
</svg>
