<svg xmlns="http://www.w3.org/2000/svg" width="77.767" height="68.5" viewBox="0 0 77.767 68.5">
  <g id="Traveller_information" data-name="Traveller information" transform="translate(2862.215 1986.926)">
    <path id="Path_6771" data-name="Path 6771" d="M487.885,671.125h57.61A5.885,5.885,0,0,1,551.366,677v32.289a5.886,5.886,0,0,1-5.871,5.866h-57.61a5.877,5.877,0,0,1-5.866-5.866V677a5.877,5.877,0,0,1,5.866-5.871Z" transform="translate(-3340.02 -2645.815)" fill="#1b75bc"/>
    <path id="Path_6772" data-name="Path 6772" d="M859.876,765.675h34.25a1.073,1.073,0,0,1,1.04,1.1h0a1.075,1.075,0,0,1-1.04,1.1h-34.25a1.079,1.079,0,0,1-1.045-1.1h0a1.077,1.077,0,0,1,1.045-1.1Z" transform="translate(-3689.606 -2734.035)" fill="#f5f5f5" fill-rule="evenodd"/>
    <path id="Path_6773" data-name="Path 6773" d="M614.049,1021.909a7.1,7.1,0,0,1,5.4,6.87v7.073H599.025v-7.073a7.1,7.1,0,0,1,5.4-6.87,7.785,7.785,0,0,0,9.62,0Z" transform="translate(-3449.195 -2973.118)" fill="#ff7f00" fill-rule="evenodd"/>
    <path id="Path_6774" data-name="Path 6774" d="M656.213,841.825a6.841,6.841,0,1,0-6.844-6.838,6.854,6.854,0,0,0,6.844,6.838Z" transform="translate(-3496.17 -2792.322)" fill="#ff7f00" fill-rule="evenodd"/>
    <path id="Path_6775" data-name="Path 6775" d="M969,874.913h28.017a1.007,1.007,0,0,1,.852,1.1h0a1.007,1.007,0,0,1-.852,1.1H969a1.007,1.007,0,0,1-.852-1.1h0a1.008,1.008,0,0,1,.852-1.1Z" transform="translate(-3792.302 -2835.962)" fill="#f5f5f5" fill-rule="evenodd"/>
    <path id="Path_6776" data-name="Path 6776" d="M969,984.227h28.017a1,1,0,0,1,.852,1.1h0a1,1,0,0,1-.852,1.1H969a1,1,0,0,1-.852-1.1h0a1,1,0,0,1,.852-1.1Z" transform="translate(-3792.302 -2937.959)" fill="#f5f5f5" fill-rule="evenodd"/>
    <path id="Path_6777" data-name="Path 6777" d="M969.015,1093.539h28.653a1.008,1.008,0,0,1,.872,1.1h0a1.009,1.009,0,0,1-.872,1.1H969.015a1.009,1.009,0,0,1-.871-1.1h0a1.008,1.008,0,0,1,.871-1.1Z" transform="translate(-3792.976 -3039.953)" fill="#f5f5f5" fill-rule="evenodd"/>
    <path id="Path_6778" data-name="Path 6778" d="M969.224,1202.777h28.241a1.094,1.094,0,0,1,1.075,1.1h0a1.091,1.091,0,0,1-1.075,1.1H969.224a1.092,1.092,0,0,1-1.08-1.1h0a1.1,1.1,0,0,1,1.08-1.1Z" transform="translate(-3792.976 -3141.88)" fill="#f5f5f5" fill-rule="evenodd"/>
    <path id="Path_6779" data-name="Path 6779" d="M444.034,489.1l17.775,10.26H431.33l4.686-8.113a5.883,5.883,0,0,1,8.019-2.148Zm49.8,28.748.089.052a5.89,5.89,0,0,1,2.153,8.019l-2.241,3.879Zm-9.22,27.921-4.686,8.112a5.89,5.89,0,0,1-8.019,2.153l-17.775-10.265Zm-62.5-18.488-.088-.052a5.882,5.882,0,0,1-2.148-8.019l2.236-3.875Z" transform="translate(-3281.303 -2475.239)" fill="#1b75bc"/>
  </g>
</svg>
