<?xml version="1.0" encoding="iso-8859-1"?>
<!-- Generator: Adobe Illustrator 19.0.0, SVG Export Plug-In . SVG Version: 6.00 Build 0)  -->
<svg version="1.1" id="Capa_1" xmlns="http://www.w3.org/2000/svg" xmlns:xlink="http://www.w3.org/1999/xlink" x="0px" y="0px"
	 viewBox="0 0 511.998 511.998" style="enable-background:new 0 0 511.998 511.998;" xml:space="preserve">
<g>
	<g>
		<path d="M82.175,408.073c1.947-2.16,4.811-4.593,8.599-7.3c3.781-2.702,7.894-5.403,12.329-8.111
			c4.431-2.702,8.922-5.354,13.465-7.949c4.544-2.596,8.436-4.867,11.68-6.813c4.756-2.809,9.41-5.891,13.952-9.246
			c4.543-3.352,8.648-7.245,12.329-11.68c3.676-4.431,6.652-9.459,8.922-15.087c2.272-5.623,3.406-12.006,3.406-19.143
			c0-17.303-6.219-31.036-18.655-41.206c-12.441-10.164-30.336-15.25-53.696-15.25c-9.521,0-18.656,0.868-27.417,2.596
			c-8.76,1.734-16.821,4.056-24.172,6.976c-7.357,2.921-13.952,6.22-19.792,9.896c-5.84,3.68-10.493,7.462-13.951,11.355
			l33.094,38.285c6.271-7.138,12.76-12.922,19.467-17.358c6.703-4.43,14.6-6.651,23.685-6.651c8,0,14.165,1.84,18.494,5.516
			c4.324,3.681,6.489,8.547,6.489,14.6c0,3.031-0.867,5.677-2.595,7.949c-1.734,2.271-4.598,4.816-8.599,7.624
			c-4.005,2.814-9.41,6.058-16.223,9.734c-6.813,3.681-15.305,8.329-25.47,13.951c-9.52,5.409-17.413,10.925-23.685,16.546
			c-6.276,5.628-11.25,11.736-14.924,18.333c-3.68,6.6-6.275,13.901-7.787,21.901c-1.516,8.005-2.271,17.09-2.271,27.254h161.578
			v-46.722H82.175z" style='fill: #F0A04B;'/>
	</g>
</g>
<g>
	<g>
		<path d="M331.35,404.828V269.532h-35.365L190.214,405.153v46.397h89.224V496h51.912v-44.45h28.552v-46.722H331.35z
			 M285.602,404.829h-44.125l44.125-57.428V404.829z" style='fill: #F0A04B;'/>
	</g>
</g>
<g>
	<g>
		<polygon points="39.036,466.65 39.036,484.02 21.162,484.02 21.162,466.65 10.803,466.65 10.803,511.494 21.162,511.494 
			21.162,493.114 39.036,493.114 39.036,511.494 49.395,511.494 49.395,466.65" style='fill: #F0A04B;'/>
	</g>
</g>
<g>
	<g>
		<path d="M107.879,480.86c-1.051-2.736-2.545-5.179-4.482-7.326c-1.938-2.148-4.274-3.872-7.011-5.179
			c-2.738-1.305-5.769-1.958-9.096-1.958c-3.242,0-6.232,0.622-8.969,1.863c-2.738,1.243-5.106,2.906-7.107,4.989
			c-2,2.084-3.559,4.496-4.674,7.233c-1.117,2.738-1.674,5.58-1.674,8.527c0,2.905,0.537,5.727,1.611,8.463
			c1.074,2.738,2.578,5.17,4.515,7.295c1.937,2.126,4.274,3.843,7.011,5.147c2.737,1.305,5.768,1.958,9.096,1.958
			c3.242,0,6.231-0.631,8.969-1.896c2.737-1.262,5.095-2.937,7.074-5.02c1.98-2.084,3.526-4.496,4.642-7.233
			c1.116-2.737,1.674-5.579,1.674-8.527C109.458,486.377,108.931,483.597,107.879,480.86z M98.186,493.967
			c-0.485,1.622-1.211,3.074-2.18,4.358c-0.968,1.285-2.19,2.327-3.662,3.128c-1.475,0.799-3.201,1.2-5.18,1.2
			c-1.895,0-3.579-0.379-5.053-1.136c-1.475-0.758-2.706-1.77-3.695-3.032c-0.989-1.262-1.736-2.705-2.242-4.326
			s-0.758-3.294-0.758-5.021c0-1.684,0.242-3.337,0.727-4.959c0.485-1.62,1.22-3.063,2.21-4.326c0.99-1.263,2.21-2.284,3.663-3.063
			c1.453-0.779,3.169-1.169,5.147-1.169c1.895,0,3.568,0.369,5.021,1.106c1.452,0.737,2.684,1.728,3.694,2.968
			c1.01,1.243,1.769,2.675,2.274,4.295c0.505,1.621,0.758,3.296,0.758,5.021C98.913,490.694,98.67,492.347,98.186,493.967z" style='fill: #F0A04B;'/>
	</g>
</g>
<g>
	<g>
		<path d="M153.74,466.651v22.926h-0.003c0,1.643-0.158,3.253-0.474,4.832c-0.316,1.579-0.853,2.979-1.61,4.2
			c-0.758,1.221-1.748,2.201-2.969,2.937c-1.22,0.738-2.716,1.106-4.484,1.106c-1.769,0-3.253-0.358-4.453-1.074
			c-1.201-0.715-2.18-1.685-2.937-2.906c-0.758-1.219-1.306-2.61-1.643-4.168c-0.338-1.558-0.505-3.199-0.505-4.927V466.65h-10.358
			v22.927c0,2.948,0.368,5.769,1.105,8.463c0.737,2.696,1.896,5.063,3.475,7.107s3.632,3.674,6.158,4.894
			c2.527,1.221,5.579,1.832,9.159,1.832c3.452,0,6.431-0.578,8.938-1.737c2.504-1.158,4.568-2.748,6.189-4.768
			c1.621-2.022,2.821-4.379,3.601-7.074c0.779-2.694,1.169-5.6,1.169-8.716v-22.927H153.74z" style='fill: #F0A04B;'/>
	</g>
</g>
<g>
	<g>
		<path d="M209.128,494.82c1.136-0.632,2.157-1.4,3.064-2.306c0.905-0.906,1.673-1.927,2.305-3.063
			c0.631-1.137,1.116-2.348,1.453-3.633c0.336-1.284,0.505-2.621,0.505-4.01c0-1.854-0.369-3.685-1.106-5.496
			c-0.737-1.81-1.758-3.431-3.063-4.862c-1.306-1.431-2.853-2.59-4.642-3.475c-1.79-0.883-3.737-1.326-5.842-1.326h-20.212v44.845
			h10.358v-14.464h6.758l8.59,14.464h11.684L209.128,494.82z M204.581,486.261c-0.884,1.159-1.938,1.737-3.158,1.737h-9.474v-12.253
			h9.159c1.177,0,2.274,0.548,3.284,1.643c1.01,1.095,1.516,2.569,1.516,4.422C205.907,483.619,205.465,485.104,204.581,486.261z" style='fill: #F0A04B;'/>
	</g>
</g>
<g>
	<g>
		<path d="M265.186,492.986c-0.654-1.471-1.579-2.724-2.779-3.756c-1.201-1.032-2.664-1.896-4.39-2.59
			c-1.728-0.695-3.663-1.336-5.811-1.927c-1.559-0.42-2.927-0.799-4.105-1.136c-1.179-0.336-2.158-0.705-2.937-1.106
			c-0.78-0.4-1.369-0.853-1.769-1.358c-0.402-0.505-0.601-1.136-0.601-1.895c0-2.484,1.853-3.727,5.558-3.727
			c1.346,0,2.695,0.19,4.043,0.569c1.346,0.379,2.589,0.822,3.727,1.326c1.136,0.505,2.083,0.991,2.842,1.453
			c0.757,0.464,1.2,0.78,1.326,0.948l4.548-8.59c-1.01-0.589-2.116-1.177-3.316-1.769c-1.2-0.589-2.495-1.116-3.885-1.579
			c-1.389-0.463-2.842-0.841-4.358-1.136c-1.516-0.294-3.053-0.443-4.61-0.443c-2.233,0-4.348,0.317-6.347,0.948
			c-2,0.631-3.759,1.569-5.273,2.81c-1.516,1.243-2.716,2.77-3.601,4.58c-0.884,1.812-1.326,3.896-1.326,6.254
			c0,1.685,0.241,3.158,0.726,4.421c0.485,1.263,1.22,2.379,2.21,3.348s2.242,1.822,3.759,2.558
			c1.516,0.738,3.306,1.421,5.369,2.054c1.558,0.463,3,0.883,4.326,1.262c1.327,0.379,2.474,0.79,3.442,1.232
			c0.967,0.442,1.727,0.937,2.274,1.484c0.546,0.547,0.822,1.242,0.822,2.084c0,2.232-1.832,3.348-5.495,3.348
			c-1.728,0-3.433-0.232-5.117-0.695c-1.684-0.463-3.212-0.99-4.58-1.579c-1.369-0.589-2.517-1.178-3.442-1.77
			c-0.926-0.588-1.474-0.989-1.643-1.2l-4.548,9.032c1.305,0.883,2.726,1.663,4.263,2.336c1.537,0.674,3.128,1.253,4.769,1.737
			c1.642,0.484,3.325,0.853,5.053,1.105c1.727,0.253,3.41,0.379,5.053,0.379c2.148,0,4.232-0.243,6.254-0.727
			c2.021-0.484,3.81-1.263,5.369-2.336c1.558-1.074,2.81-2.484,3.758-4.232c0.948-1.747,1.421-3.885,1.421-6.411
			C266.164,496.229,265.839,494.461,265.186,492.986z" style='fill: #F0A04B;'/>
	</g>
</g>
<g>
	<g>
		<path d="M286.502,241.846c-2.819-11.181-11.637-20-22.818-22.818V81.064h-15.371v137.965
			c-13.642,3.439-23.771,15.809-23.771,30.503c0,17.346,14.112,31.456,31.456,31.456c14.695,0,27.064-10.13,30.503-23.771h91.454
			v-15.371H286.502z M255.999,265.617c-8.869,0-16.085-7.216-16.085-16.085c0-8.869,7.216-16.085,16.085-16.085
			c8.869,0,16.085,7.216,16.085,16.085C272.084,258.401,264.868,265.617,255.999,265.617z" style='fill: #F0A04B;'/>
	</g>
</g>
<g>
	<g>
		<path d="M477.549,364.449c18.305-35.22,27.982-74.959,27.982-114.918c0-66.652-25.956-129.315-73.085-176.447
			C385.314,25.956,322.651,0,255.999,0S126.683,25.956,79.552,73.085C32.423,120.216,6.467,182.88,6.467,249.532v7.686h46.96
			v-15.371H21.962c1.226-37.841,11.483-73.434,28.667-104.707l27.047,15.978l7.818-13.234L58.46,123.913
			c18.532-29.041,43.293-53.733,72.379-72.201l15.904,27.063l13.252-7.788l-15.914-27.081
			c31.158-17.026,66.584-27.176,104.233-28.396V46.96h15.371V15.51c37.838,1.227,73.435,11.468,104.707,28.651l-15.979,27.048
			l13.233,7.818l15.967-27.029c29.04,18.532,53.736,43.289,72.204,72.374l-27.064,15.903l7.788,13.252l27.091-15.918
			c17.027,31.158,27.167,66.589,28.388,104.238h-31.449v15.371h31.451c-1.228,36.969-11.273,72.807-28.706,104.675l-26.995-15.947
			l-7.818,13.234l26.986,15.942c-12.48,19.656-27.906,37.514-45.894,52.839l2.078-18.736l-15.277-1.695l-4.98,44.894l44.894,4.98
			l1.695-15.277l-18.88-2.095C441.9,419.025,462.61,393.195,477.549,364.449z" style='fill: #F0A04B;'/>
	</g>
</g>
<g>
</g>
<g>
</g>
<g>
</g>
<g>
</g>
<g>
</g>
<g>
</g>
<g>
</g>
<g>
</g>
<g>
</g>
<g>
</g>
<g>
</g>
<g>
</g>
<g>
</g>
<g>
</g>
<g>
</g>
</svg>
