<?xml version="1.0" encoding="UTF-8"?>
<svg xmlns="http://www.w3.org/2000/svg" xmlns:xlink="http://www.w3.org/1999/xlink" version="1.1" id="Layer_1" x="0px" y="0px" viewBox="0 0 512 512" style="enable-background:new 0 0 512 512;" xml:space="preserve" width="512" height="512">
<g id="Layer_2_00000031206693726333428400000010210110192125143732_">
	<g id="Layer_1-2">
		<g id="confirmation">
			<path d="M512,218.1c0-2.3-2-3.4-2.7-4.1l-38.8-33.2c44.6-32.3,54.6-94.7,22.3-139.3c-41.4-60.1-138.1-52.2-169.6,13.3L261,1.9     c-2.9-2.5-7.2-2.5-10,0l-86.9,74.2h-71c-4.3,0-7.8,3.5-7.7,7.8v59.4L2.7,214c-2.7,1.7-2.6,4.8-2.6,6C0.6,223.9,0,498.3,0,507.1     c0,2.4,1.5,4.9,6.4,5c6.3,0.1,493.1-0.1,500.2-0.1c3.8,0,5.5-5.5,5.4-7.5h0.1C511.1,500,512,225.6,512,218.1z M496.5,236.8v250.5     L349.8,362.1L496.5,236.8z M492.3,220l-65.6,56v-77.4c10.3-1.4,20.4-4.5,29.7-9.2L492.3,220z M412.1,15.5     c111.3,2.8,111.3,166,0,168.8C300.7,181.4,300.9,18.5,412.1,15.5z M255.9,18.1l60.8,52c-0.6,1.8-1,3.9-1.6,6H187.9L255.9,18.1z      M312.6,91.7c-5.1,57.4,40.9,107.8,98.6,108v89.6L338,351.9l-77-65.8c-2.9-2.3-7.1-2.3-10,0l-76.9,65.8l-73.2-62.6V91.7H312.6z      M162.1,362.1L15.4,487.3V236.8L162.1,362.1z M85.3,276l-65.6-56l65.6-56.2V276z M28.8,496.5l227.1-194.3l227.3,194.3H28.8z" style='fill: #F0A04B;'/>
			<path d="M402.4,152.5c3.3,4.2,10.6,3.5,12.9-1.4l45.1-87.3c2-4.2,0-7.9-3.1-9.8c-3.4-2-8.2-1.8-10.7,2.7l-39.7,76.9l-30.3-36.9     c-3.2-3.8-7.8-3.3-10.8-0.9s-4.4,6.8-1.3,10.7C364.6,106.6,402.3,152.4,402.4,152.5z" style='fill: #F0A04B;'/>
			<path d="M147.4,207.3H318c5-0.1,7.6-3.9,7.6-7.7c0-3.8-2.5-7.6-7.6-7.7H147.4c-5,0.1-7.6,3.9-7.6,7.7     C139.8,203.4,142.3,207.2,147.4,207.3z" style='fill: #F0A04B;'/>
			<path d="M147.4,157h131.8c5.3,0.1,8-3.8,8-7.7c0-3.9-2.6-7.9-8-7.7H147.4C137.8,142,137.7,156.5,147.4,157z" style='fill: #F0A04B;'/>
			<path d="M147.4,257.7h217.3c4.8-0.2,7.2-3.9,7.2-7.7c0-3.8-2.4-7.5-7.2-7.7H147.4c-4.8,0.2-7.2,4-7.2,7.7     C140.1,253.8,142.5,257.5,147.4,257.7z" style='fill: #F0A04B;'/>
		</g>
	</g>
</g>
<path d="M139.8,149.3"/>
</svg>
