<svg id="line_icons" height="512" viewBox="0 0 74 74" width="512" xmlns="http://www.w3.org/2000/svg" data-name="line icons">
<path d="m30.988 56.612a.979.979 0 0 1 -.234-.028 1 1 0 0 1 -.689-.584l-3.483-8.375a1 1 0 0 1 .219-1.095l2.411-2.391a1 1 0 0 1 1.355-.049l6.839 5.878a1 1 0 0 1 0 1.521l-5.766 4.889a1 1 0 0 1 -.652.234zm-2.3-9.138 2.7 6.49 3.829-3.246-5.25-4.512z" style='fill: #F0A04B;'/>
<path d="m42.521 56.612a1 1 0 0 1 -.646-.237l-5.767-4.889a1 1 0 0 1 0-1.521l6.838-5.878a1 1 0 0 1 1.341.034l2.513 2.392a1 1 0 0 1 .229 1.118l-3.589 8.375a1 1 0 0 1 -.689.579.945.945 0 0 1 -.23.027zm-4.221-5.894 3.841 3.256 2.78-6.491-1.356-1.29z" style='fill: #F0A04B;'/>
<path d="m49.187 39.458a1 1 0 0 1 -.023-2c1.225-.027 4.405-1.547 4.75-4.242a2.848 2.848 0 0 0 -.39-2.154 3.431 3.431 0 0 0 -2.33-.981 1 1 0 0 1 .227-1.988 5.385 5.385 0 0 1 3.679 1.736 4.731 4.731 0 0 1 .8 3.642c-.492 3.843-4.616 5.94-6.689 5.987z" style='fill: #F0A04B;'/>
<path d="m24.36 39.458h-.022c-2.072-.047-6.2-2.144-6.69-5.987a4.735 4.735 0 0 1 .8-3.642 5.385 5.385 0 0 1 3.678-1.736 1 1 0 0 1 .227 1.988 3.436 3.436 0 0 0 -2.331.981 2.852 2.852 0 0 0 -.39 2.154c.346 2.694 3.525 4.215 4.75 4.242a1 1 0 0 1 -.023 2z" style='fill: #F0A04B;'/>
<path d="m36.775 48.242c-3.763 0-7.5-1.924-10.521-5.416a19.524 19.524 0 0 1 -4.54-12.9l.02-2.862a.975.975 0 0 1 .021-.193l.591-2.892a4.548 4.548 0 0 1 3.954-3.433 53.219 53.219 0 0 0 10.2-2.246c7.116-2.2 12.052-.377 13.9 5.119l.96 4.053c-.007-.041.029-.009.079 0a1 1 0 0 1 .856.989v1.416c-.463 8.694-7.195 18.365-15.52 18.365zm-13.042-21.066-.019 2.764a17.516 17.516 0 0 0 4.056 11.58c2.632 3.044 5.832 4.722 9 4.722 7.121 0 13.116-8.828 13.521-16.424v-.692a2.054 2.054 0 0 1 -.865-1.136l-.952-4.029c-1.828-5.425-7.2-5.044-11.388-3.754a55.047 55.047 0 0 1 -10.606 2.331 2.527 2.527 0 0 0 -2.193 1.9z" style='fill: #F0A04B;'/>
<path d="m51.438 29.466a1.533 1.533 0 0 1 -.385-.04 2.056 2.056 0 0 1 -1.622-1.436l-.952-4.029c-1.828-5.425-7.2-5.044-11.388-3.754a55.122 55.122 0 0 1 -10.606 2.331 2.527 2.527 0 0 0 -2.193 1.9l-.578 2.836a1.883 1.883 0 0 1 -.79 1.182 1.826 1.826 0 0 1 -1.055.321 1.916 1.916 0 0 1 -1.856-1.461s-.868-2.916-1.513-5.444c-.078-.322-.143-.631-.2-.949a15.159 15.159 0 0 1 7.256-15.51 23.459 23.459 0 0 1 11.444-3.413 19.088 19.088 0 0 1 5.707 1.006 17.6 17.6 0 0 1 11.587 20.086c-.369 1.946-.765 4.521-.769 4.547a2.087 2.087 0 0 1 -2.087 1.827zm-9.548-12.078c4.223 0 7.175 2.05 8.51 6.026l.96 4.053c-.007-.041.029-.009.079 0a.113.113 0 0 0 .1-.088c.01-.067.41-2.677.786-4.658a15.6 15.6 0 0 0 -10.239-17.812 17.313 17.313 0 0 0 -5.086-.909 21.381 21.381 0 0 0 -10.423 3.127 13.144 13.144 0 0 0 -6.32 13.424c.055.274.113.556.181.839.507 1.983 1.158 4.22 1.4 5.056l.5-2.467a4.548 4.548 0 0 1 3.962-3.433 53.219 53.219 0 0 0 10.2-2.246 18.454 18.454 0 0 1 5.39-.912z" style='fill: #F0A04B;'/>
<path d="m66.625 72h-59.25a1 1 0 0 1 -1-1v-3.36a21.431 21.431 0 0 1 21.053-21.4h.077.28a1 1 0 1 1 0 2 19.427 19.427 0 0 0 -19.41 19.4v2.36h57.25v-2.36a19.422 19.422 0 0 0 -19.4-19.4h-.116a1 1 0 0 1 0-2h.116a21.425 21.425 0 0 1 21.4 21.4v3.36a1 1 0 0 1 -1 1z" style='fill: #F0A04B;'/>
<path d="m56 72h-38a1 1 0 0 1 -1-1v-9.75a1 1 0 0 1 2 0v8.75h36v-8.75a1 1 0 0 1 2 0v9.75a1 1 0 0 1 -1 1z" style='fill: #F0A04B;'/>
<path d="m49.949 44.523a3.434 3.434 0 0 1 -.515-.039l-10.366-1.578a1 1 0 0 1 .3-1.978l10.365 1.578a1.435 1.435 0 0 0 1.155-.333 1.454 1.454 0 0 0 .506-1.1v-3.88a1 1 0 0 1 2 0v3.88a3.454 3.454 0 0 1 -3.446 3.451z" style='fill: #F0A04B;'/>
<path d="m37.349 44.159a3.037 3.037 0 1 1 3.037-3.036 3.04 3.04 0 0 1 -3.037 3.036zm0-4.073a1.037 1.037 0 1 0 1.037 1.037 1.038 1.038 0 0 0 -1.037-1.037z" style='fill: #F0A04B;'/></svg>