<svg id="Layer_5" enable-background="new 0 0 62.63 62" height="512" viewBox="0 0 62.63 62" width="512" xmlns="http://www.w3.org/2000/svg"><g>
<path d="m42 44v-26c0-2.206-1.794-4-4-4h-14c-2.206 0-4 1.794-4 4v26c0 2.206 1.794 4 4 4h14c2.206 0 4-1.794 4-4zm-2-4h-18v-18h18zm-16-24h14c1.103 0 2 .897 2 2v2h-18v-2c0-1.103.897-2 2-2zm14 30h-14c-1.103 0-2-.897-2-2v-2h18v2c0 1.103-.897 2-2 2z" style='fill: #F0A04B;'/>
<path d="m4 52h2v2h-2z" style='fill: #F0A04B;'/>
<path d="m10 52h6v2h-6z" style='fill: #F0A04B;'/>
<path d="m4 56h12v2h-12z" style='fill: #F0A04B;'/><circle cx="4" cy="4" r="1" style='fill: #F0A04B;'/>
<path d="m14 6h-2v-2h-2v4h4z" style='fill: #F0A04B;'/><path d="m4 12h2v2h2v-4h-4z" style='fill: #F0A04B;'/>
<path d="m26 38h10c1.103 0 2-.897 2-2v-10c0-1.103-.897-2-2-2h-10c-1.103 0-2 .897-2 2v10c0 1.103.897 2 2 2zm4-12h2v2h-2zm-4 0h2v4h6v-4h2l.001 10h-10.001z" style='fill: #F0A04B;'/>
<path d="m58 52h4.63l-8.326-7.401c2.411-4.123 3.696-8.801 3.696-13.599 0-4.625-1.187-9.134-3.431-13.146 4.216-.746 7.431-4.428 7.431-8.854 0-4.962-4.037-9-9-9-4.427 0-8.108 3.215-8.854 7.43-4.012-2.243-8.521-3.43-13.146-3.43-4.568 0-9.025 1.154-13 3.344v-7.344h-18v18h7.344c-2.19 3.974-3.344 8.432-3.344 13 0 6.244 2.133 12.198 6.038 17h-7.038c-1.654 0-3 1.346-3 3v8c0 1.654 1.346 3 3 3h14c1.654 0 3-1.346 3-3v-3.344c3.446 1.537 7.217 2.344 11 2.344 4.568 0 9.025-1.154 13-3.344v5.344h-2v2h18v-2h-2zm-2 8h-4v-8h4zm-11.37-10 6.37-5.662 6.37 5.662zm15.37-41c0 3.519-2.614 6.432-6 6.92v-1.92c1.654 0 3-1.346 3-3s-1.346-3-3-3h-2c-.552 0-1-.449-1-1s.448-1 1-1h2c.552 0 1 .449 1 1h2c0-1.654-1.346-3-3-3v-1.92c3.386.488 6 3.401 6 6.92zm-8-6.92v1.92c-1.654 0-3 1.346-3 3s1.346 3 3 3h2c.552 0 1 .449 1 1s-.448 1-1 1h-2c-.552 0-1-.449-1-1h-2c0 1.654 1.346 3 3 3v1.92c-3.386-.488-6-3.401-6-6.92s2.614-6.432 6-6.92zm-46-.08v4h-4v-4zm-4 6h6v-6h8v14h-4v-2h2v-2h-2v-2h-2v6h-8zm16 51c0 .551-.448 1-1 1h-14c-.552 0-1-.449-1-1v-8c0-.551.448-1 1-1h14c.552 0 1 .449 1 1zm13-3c-3.862 0-7.557-.869-11-2.563v-2.437c0-1.654-1.346-3-3-3h-4.312c-4.312-4.642-6.688-10.66-6.688-17 0-4.605 1.274-9.084 3.666-13h8.334v-8.334c3.917-2.392 8.396-3.666 13-3.666 4.619 0 9.111 1.281 13.035 3.687.336 4.414 3.864 7.943 8.278 8.278 2.406 3.926 3.687 8.417 3.687 13.035 0 4.308-1.118 8.512-3.221 12.244l-1.779-1.582-11.63 10.338h4.63v.334c-3.917 2.392-8.396 3.666-13 3.666zm15-4h4v8h-4z" style='fill: #F0A04B;'/>
</g></svg>