<svg xmlns="http://www.w3.org/2000/svg"  viewBox="0 0 240 160"><path fill="#FFF" d="M0 0h240v160H0z"/><path fill="#B22234" d="M0 0h240v12.3H0V0zm0 24.6h240v12.3H0V24.6zm0 24.6h240v12.3H0V49.2zm0 24.6h240v12.3H0V73.8zm0 24.7h240v12.3H0V98.5zm0 24.6h240v12.3H0v-12.3zm0 24.6h240V160H0v-12.3z"/><path fill="#3C3B6E" d="M0 0h121.6v86.2H0z"/><path fill="#FFF" d="M11.5 7h3.6l-2.9 2.1 1.1 3.4-2.9-2.1-2.9 2.1 1.1-3.4L5.7 7h3.6l1.1-3.4L11.5 7zm19.1-3.4L29.5 7h-3.6l2.9 2.1-1.1 3.4 2.9-2.1 2.9 2.1-1.1-3.4L35.2 7h-3.6l-1-3.4zm20.1 0L49.6 7H46l2.9 2.1-1.1 3.4 2.9-2.1 2.9 2.1-1.1-3.4L55.4 7h-3.6l-1.1-3.4zm20.2 0L69.8 7h-3.6l2.9 2.1-1.1 3.4 2.9-2.1 2.9 2.1-1.1-3.4L75.6 7H72l-1.1-3.4zm20.1 0L89.9 7h-3.6l2.9 2.1-1.1 3.4 2.9-2.1 2.9 2.1-1.1-3.4L95.7 7h-3.6L91 3.6zm18.4 5.5l-1.1 3.4 2.9-2.1 2.9 2.1-1.1-3.4 2.9-2.1h-3.6l-1.1-3.4-1.1 3.4h-3.6l2.9 2.1zm-87.8 6.5l-1.1-3.4-1.1 3.4h-3.6l2.9 2.1-1.1 3.4 2.9-2.1 2.9 2.1-1.1-3.4 2.9-2.1h-3.6zm20.1 0l-1.1-3.4-1.1 3.4H36l2.9 2.1-1.1 3.4 2.9-2.1 2.9 2.1-1.1-3.4 2.9-2.1h-3.7zm20.2 0l-1.1-3.4-1.1 3.4h-3.6l2.9 2.1-1.1 3.4 2.9-2.1 2.9 2.1-1.1-3.4 2.9-2.1h-3.6zm20.2 0L81 12.2l-1.1 3.4h-3.6l2.9 2.1-1.1 3.4L81 19l2.9 2.1-1.1-3.4 2.9-2.1h-3.6zm20.1 0l-1.1-3.4-1.1 3.4h-3.6l2.9 2.1-1.1 3.4 2.9-2.1 2.9 2.1-1.1-3.4 2.9-2.1h-3.6zm-90.7 8.7l-1.1-3.4-1.1 3.4H5.7l2.9 2.1-1.1 3.4 2.9-2.1 2.9 2.1-1.1-3.4 2.9-2.1h-3.6zm20.2 0l-1.1-3.4-1.1 3.4h-3.6l2.9 2.1-1.1 3.4 2.9-2.1 2.9 2.1-1.1-3.4 2.9-2.1h-3.6zm20.1 0l-1.1-3.4-1.1 3.4H46l2.9 2.1-1.1 3.4 2.9-2.1 2.9 2.1-1.1-3.4 2.9-2.1h-3.6zm20.2 0l-1.1-3.4-1.1 3.4h-3.6l2.9 2.1-1.1 3.4 2.9-2.1 2.9 2.1-1.1-3.4 2.9-2.1H72zm20.1 0L91 20.9l-1.1 3.4h-3.6l2.9 2.1-1.1 3.4 2.9-2.1 2.9 2.1-1.1-3.4 2.9-2.1h-3.6zm20.2 0l-1.1-3.4-1.1 3.4h-3.6l2.9 2.1-1.1 3.4 2.9-2.1 2.9 2.1-1.1-3.4 2.9-2.1h-3.6zm-90.7 8.6l-1.1-3.4-1.1 3.4h-3.6l2.9 2.1-1.1 3.4 2.9-2.1 2.9 2.1-1.1-3.4 2.9-2.1h-3.6zm20.1 0l-1.1-3.4-1.1 3.4H36l2.9 2.1-1.1 3.4 2.9-2.1 2.9 2.1-1.2-3.4 2.9-2.1h-3.6zm20.2 0l-1.1-3.4-1.1 3.4h-3.6L59 35l-1.1 3.4 2.9-2.1 2.9 2.1-1.1-3.4 2.9-2.1h-3.6zm20.2 0L81 29.5l-1.1 3.4h-3.6l2.9 2.1-1.1 3.4 2.9-2.1 2.9 2.1-1.1-3.4 2.9-2.1h-3.6zm20.1 0l-1.1-3.4-1.1 3.4h-3.6l2.9 2.1-1.1 3.4 2.9-2.1 2.9 2.1-1.1-3.4 2.9-2.1h-3.6zm-90.7 8.7l-1.1-3.4-1.1 3.4H5.7l2.9 2.1-1.1 3.4 2.9-2.1 2.9 2.1-1.1-3.4 2.9-2.1h-3.6zm20.2 0l-1.1-3.4-1.1 3.4h-3.6l2.9 2.1-1.1 3.4 2.9-2.1 2.9 2.1-1.1-3.4 2.9-2.1h-3.6zm20.1 0l-1.1-3.4-1.1 3.4H46l2.9 2.1-1.1 3.4 2.9-2.1 2.9 2.1-1.1-3.4 2.9-2.1h-3.6zm20.2 0l-1.1-3.4-1.1 3.4h-3.6l2.9 2.1-1.1 3.4 2.9-2.1 2.9 2.1-1.1-3.4 2.9-2.1H72zm20.1 0L91 38.1l-1.1 3.4h-3.6l2.9 2.1-1.1 3.4 2.9-2 2.9 2.1-1.1-3.4 2.9-2.1h-3.6zm20.2 0l-1.1-3.4-1.1 3.4h-3.6l2.9 2.1-1.1 3.4 2.9-2.1 2.9 2.1-1.1-3.4 2.9-2.1h-3.6zm-90.7 8.6l-1.1-3.4-1.1 3.4h-3.6l2.9 2.1-1.1 3.4 2.9-2.1 2.9 2.1-1.1-3.4 2.9-2.1h-3.6zm20.1 0l-1.1-3.4-1.1 3.4H36l2.9 2.1-1.1 3.4 2.9-2.1 2.9 2.1-1.1-3.4 2.9-2.1h-3.7zm20.2 0l-1.1-3.4-1.1 3.4h-3.6l2.9 2.1-1.1 3.4 2.9-2.1 2.9 2.1-1.1-3.4 2.9-2.1h-3.6zm20.2 0L81 46.8l-1.1 3.4h-3.6l2.9 2.1-1.1 3.4 2.9-2.1 2.9 2.1-1.1-3.4 2.9-2.1h-3.6zm20.1 0l-1.1-3.4-1.1 3.4h-3.6l2.9 2.1-1.1 3.4 2.9-2.1 2.9 2.1-1.1-3.4 2.9-2.1h-3.6zm-90.7 8.6l-1.1-3.4-1.1 3.4H5.7l2.9 2.1-1.1 3.4 2.9-2.1 2.9 2.1-1.1-3.4 2.9-2.1h-3.6zm20.2 0l-1.1-3.4-1.1 3.4h-3.6l2.9 2.1-1.1 3.4 2.9-2.1 2.9 2.1-1.1-3.4 2.9-2.1h-3.6zm20.1 0l-1.1-3.4-1.1 3.4H46l2.9 2.1-1.1 3.4 2.9-2.1 2.9 2.1-1.1-3.4 2.9-2.1h-3.6zm20.2 0l-1.1-3.4-1.1 3.4h-3.6l2.9 2.1-1.1 3.4 2.9-2.1 2.9 2.1-1.1-3.4 2.9-2.1H72zm20.1 0L91 55.4l-1.1 3.4h-3.6l2.9 2.1-1.1 3.4 2.9-2.1 2.9 2.1-1.1-3.4 2.9-2.1h-3.6zm20.2 0l-1.1-3.4-1.1 3.4h-3.6l2.9 2.1-1.1 3.4 2.9-2.1 2.9 2.1-1.1-3.4 2.9-2.1h-3.6zm-90.7 8.7l-1.1-3.4-1.1 3.4h-3.6l2.9 2.1-1.1 3.4 2.9-2.1 2.9 2.1-1.1-3.4 2.9-2.1h-3.6zm20.1 0l-1.1-3.4-1.1 3.4H36l2.9 2.1-1.2 3.4 2.9-2.1 2.9 2.1-1.1-3.4 2.9-2.1h-3.6zm20.2 0l-1.1-3.4-1.1 3.4h-3.6l2.9 2.1-1.1 3.4 2.9-2.1 2.9 2.1-1.1-3.4 2.9-2.1h-3.6zm20.2 0L81 64.1l-1.1 3.4h-3.6l2.9 2.1-1.1 3.4 2.9-2.1 2.9 2.1-1.1-3.4 2.9-2.1h-3.6zm20.1 0l-1.1-3.4-1.1 3.4h-3.6l2.9 2.1-1.1 3.4 2.9-2.1L104 73l-1.1-3.4 2.9-2.1h-3.6zm-90.7 8.6l-1.1-3.4-1.1 3.4H5.7l2.9 2.1-1.1 3.4 2.9-2.1 2.9 2.1-1.1-3.4 2.9-2.1h-3.6zm20.2 0l-1.1-3.4-1.1 3.4h-3.6l2.9 2.1-1.1 3.4 2.9-2.1 2.9 2.1-1.1-3.4 2.9-2.1h-3.6zm20.1 0l-1.1-3.4-1.1 3.4H46l2.9 2.1-1.1 3.4 2.9-2.1 2.9 2.1-1.1-3.4 2.9-2.1h-3.6zm20.2 0l-1.1-3.4-1.1 3.4h-3.6l2.9 2.1-1.1 3.4 2.9-2.1 2.9 2.1-1.1-3.4 2.9-2.1H72zm20.1 0L91 72.7l-1.1 3.4h-3.6l2.9 2.1-1.1 3.4 2.9-2.1 2.9 2.1-1.1-3.4 2.9-2.1h-3.6zm20.2 0l-1.1-3.4-1.1 3.4h-3.6l2.9 2.1-1.1 3.4 2.9-2.1 2.9 2.1-1.1-3.4 2.9-2.1h-3.6z"/></svg>